<?xml version="1.0" encoding="UTF-8"?><svg id="Layer_2" xmlns="http://www.w3.org/2000/svg" viewBox="0 0 221.17 166.03"><defs><style>.cls-1{fill:#171b21;}</style></defs><g id="Layer_1-2"><g><path class="cls-1" d="m131.01,0l-.14.14c-2.44,1.21-52.8,19.47-52.8,19.47L25.37.11l-.11-.11L0,25.26l.02.05-.02.02.03.03s18.08,41.95,18.08,56.94c0,.24,0,.48,0,.71,0,.24,0,.71,0,.71l-13.85,43L0,140.77l25.26,25.26,25.26-25.26-4.25-14.04-13.85-43s0,0,0,0c0-.23,0-.47,0-.7,0-.24,0-.47,0-.71,0-11.65,8.36-31.16,12.09-39.28,0,0,33.57-9.97,33.57-9.97.22,0,21.22,4.17,33.01,8.51,3.26,6.95,12.77,28.31,12.77,40.73,0,.24,0,.48,0,.71,0,.24,0,.71,0,.71l-13.85,43-4.25,14.04,25.26,25.26,25.26-25.26-4.25-14.04-13.85-43s0,0,0,0c0-.23,0-.47,0-.7,0-.24,0-.47,0-.71,0-14.99,18.08-56.95,18.08-56.95l.03-.03-.02-.02.02-.05L131.01,0Z"/><rect class="cls-1" x="174.31" y="119.17" width="38.82" height="38.82" transform="translate(-41.25 177.57) rotate(-45)"/></g></g></svg>