<?xml version="1.0" encoding="UTF-8"?><svg id="Layer_2" xmlns="http://www.w3.org/2000/svg" viewBox="0 0 526.44 183.26"><defs><style>.cls-1{fill:#171b21;}</style></defs><g id="Layer_1-2"><g><path class="cls-1" d="m272.53,164.18c-3.89,0-7.27-.86-10.15-2.58-2.88-1.72-5.14-4.06-6.77-7v28.66h-12.59v-69.26h10.99v8.46c1.82-2.88,4.17-5.15,7.05-6.81,2.88-1.66,6.2-2.49,9.96-2.49,3.32,0,6.39.67,9.21,2.02s5.25,3.16,7.28,5.45c2.03,2.29,3.63,4.98,4.79,8.08,1.16,3.1,1.74,6.38,1.74,9.82s-.53,6.92-1.6,10.06c-1.07,3.13-2.55,5.86-4.46,8.18-1.91,2.32-4.18,4.14-6.81,5.45-2.63,1.32-5.51,1.98-8.65,1.98Zm-4.23-10.71c1.88,0,3.62-.41,5.21-1.22,1.6-.81,2.96-1.91,4.09-3.29,1.13-1.38,2-2.97,2.63-4.79.63-1.82.94-3.7.94-5.64,0-2.07-.34-3.99-1.03-5.78-.69-1.79-1.65-3.33-2.87-4.65-1.22-1.32-2.66-2.35-4.32-3.1-1.66-.75-3.46-1.13-5.4-1.13-1.19,0-2.41.2-3.66.61-1.25.41-2.41.99-3.48,1.74-1.07.75-2.02,1.63-2.87,2.63-.85,1-1.49,2.1-1.93,3.29v11.56c1.13,2.82,2.85,5.15,5.17,7s4.82,2.77,7.52,2.77Z"/><path class="cls-1" d="m298.84,107.14v-12.5h12.59v12.5h-12.59Zm0,56.1v-49.24h12.59v49.24h-12.59Z"/><path class="cls-1" d="m315.94,138.62c0-3.44.59-6.7,1.79-9.77s2.91-5.76,5.17-8.08c2.26-2.32,4.98-4.17,8.18-5.55,3.2-1.38,6.8-2.07,10.81-2.07,5.39,0,9.98,1.16,13.77,3.48,3.79,2.32,6.63,5.36,8.51,9.12l-12.31,3.76c-1.07-1.82-2.48-3.21-4.23-4.18-1.75-.97-3.7-1.46-5.83-1.46-1.82,0-3.51.36-5.07,1.08-1.57.72-2.93,1.72-4.09,3.01-1.16,1.28-2.07,2.84-2.73,4.65-.66,1.82-.99,3.82-.99,6.01s.34,4.2,1.03,6.02c.69,1.82,1.61,3.38,2.77,4.7,1.16,1.31,2.52,2.33,4.09,3.05,1.56.72,3.22,1.08,4.98,1.08,2.25,0,4.34-.56,6.25-1.69,1.91-1.13,3.24-2.5,3.99-4.13l12.31,3.76c-1.69,3.76-4.48,6.83-8.36,9.21-3.89,2.38-8.55,3.57-14,3.57-4.01,0-7.61-.69-10.81-2.07-3.2-1.38-5.92-3.24-8.17-5.59-2.26-2.35-3.99-5.07-5.22-8.17-1.22-3.1-1.83-6.34-1.83-9.73Z"/><path class="cls-1" d="m390.56,164.18c-4.01,0-7.61-.69-10.81-2.07-3.2-1.38-5.9-3.24-8.13-5.59-2.23-2.35-3.93-5.06-5.12-8.13-1.19-3.07-1.79-6.3-1.79-9.68s.59-6.7,1.79-9.77,2.9-5.78,5.12-8.13c2.22-2.35,4.93-4.21,8.13-5.59,3.2-1.38,6.8-2.07,10.81-2.07s7.6.69,10.76,2.07c3.16,1.38,5.86,3.24,8.08,5.59,2.22,2.35,3.93,5.06,5.12,8.13,1.19,3.07,1.79,6.33,1.79,9.77s-.6,6.61-1.79,9.68c-1.19,3.07-2.88,5.78-5.07,8.13-2.19,2.35-4.89,4.22-8.08,5.59-3.19,1.38-6.8,2.07-10.81,2.07Zm-12.87-25.47c0,2.19.33,4.18.99,5.97.66,1.79,1.57,3.34,2.73,4.65,1.16,1.31,2.52,2.33,4.09,3.05,1.56.72,3.26,1.08,5.07,1.08s3.51-.36,5.07-1.08c1.56-.72,2.93-1.74,4.09-3.05,1.16-1.32,2.07-2.88,2.73-4.7.66-1.82.99-3.82.99-6.02s-.33-4.1-.99-5.92c-.66-1.82-1.57-3.38-2.73-4.7-1.16-1.32-2.52-2.33-4.09-3.05-1.57-.72-3.26-1.08-5.07-1.08s-3.51.38-5.07,1.13c-1.57.75-2.93,1.79-4.09,3.1-1.16,1.32-2.07,2.88-2.73,4.7-.66,1.82-.99,3.79-.99,5.92Z"/><path class="cls-1" d="m441.4,164.18c-3.38,0-6.52-.66-9.4-1.98-2.88-1.31-5.36-3.13-7.42-5.45-2.07-2.32-3.68-5.03-4.84-8.13s-1.74-6.44-1.74-10.01.55-6.89,1.64-9.96c1.09-3.07,2.62-5.76,4.56-8.08s4.26-4.14,6.95-5.45c2.69-1.31,5.64-1.97,8.83-1.97,3.63,0,6.91.88,9.82,2.63s5.18,4.04,6.81,6.86v-28h12.59v54.13c0,1.32.22,2.26.66,2.82.44.56,1.19.88,2.25.94v10.71c-2.19.44-3.98.66-5.36.66-2.26,0-4.1-.56-5.55-1.69-1.44-1.13-2.25-2.6-2.44-4.42l-.28-3.1c-1.82,3.13-4.28,5.5-7.38,7.1s-6.34,2.4-9.73,2.4Zm3.29-10.71c1.19,0,2.41-.2,3.66-.61,1.25-.41,2.41-.99,3.48-1.74,1.06-.75,2.02-1.63,2.87-2.63.84-1,1.49-2.1,1.93-3.29v-11.75c-.5-1.38-1.21-2.64-2.11-3.81-.91-1.16-1.94-2.16-3.1-3.01-1.16-.85-2.38-1.52-3.66-2.02-1.28-.5-2.55-.75-3.81-.75-1.88,0-3.62.41-5.22,1.22-1.6.82-2.96,1.93-4.09,3.34-1.13,1.41-2.01,3.02-2.63,4.84-.63,1.82-.94,3.7-.94,5.64,0,2.07.34,3.98,1.03,5.73.69,1.75,1.63,3.29,2.82,4.61,1.19,1.31,2.62,2.35,4.28,3.1,1.66.75,3.49,1.13,5.5,1.13Z"/><path class="cls-1" d="m500.69,164.18c-3.95,0-7.52-.68-10.71-2.02-3.2-1.35-5.92-3.18-8.18-5.5-2.26-2.32-3.99-5.01-5.22-8.08-1.22-3.07-1.83-6.29-1.83-9.68s.59-6.81,1.79-9.91c1.19-3.1,2.91-5.83,5.17-8.18,2.25-2.35,5-4.21,8.22-5.59,3.23-1.38,6.84-2.07,10.85-2.07s7.6.69,10.76,2.07c3.16,1.38,5.86,3.23,8.08,5.55,2.22,2.32,3.91,5.01,5.07,8.08,1.16,3.07,1.74,6.26,1.74,9.58,0,.82-.01,1.6-.05,2.35-.03.75-.11,1.38-.24,1.88h-38.06c.19,1.94.66,3.66,1.41,5.17.75,1.5,1.72,2.79,2.91,3.85,1.19,1.07,2.54,1.88,4.04,2.44,1.5.56,3.07.84,4.7.84,2.5,0,4.87-.61,7.1-1.83,2.22-1.22,3.74-2.83,4.56-4.84l10.81,3.01c-1.82,3.76-4.72,6.85-8.69,9.26-3.98,2.41-8.72,3.62-14.24,3.62Zm12.78-29.7c-.31-3.7-1.68-6.66-4.09-8.88-2.41-2.22-5.34-3.33-8.79-3.33-1.69,0-3.27.3-4.74.89-1.47.59-2.77,1.42-3.9,2.49-1.13,1.07-2.05,2.35-2.77,3.85-.72,1.5-1.15,3.16-1.27,4.98h25.56Z"/></g><g><path class="cls-1" d="m131.01,0l-.14.14c-2.44,1.21-52.8,19.47-52.8,19.47L25.37.11l-.11-.11L0,25.26l.02.05-.02.02.03.03s18.08,41.95,18.08,56.94c0,.24,0,.48,0,.71,0,.24,0,.71,0,.71l-13.85,43L0,140.77l25.26,25.26,25.26-25.26-4.25-14.04-13.85-43s0,0,0,0c0-.23,0-.47,0-.7,0-.24,0-.47,0-.71,0-11.65,8.36-31.16,12.09-39.28,0,0,33.57-9.97,33.57-9.97.22,0,21.22,4.17,33.01,8.51,3.26,6.95,12.77,28.31,12.77,40.73,0,.24,0,.48,0,.71,0,.24,0,.71,0,.71l-13.85,43-4.25,14.04,25.26,25.26,25.26-25.26-4.25-14.04-13.85-43s0,0,0,0c0-.23,0-.47,0-.7,0-.24,0-.47,0-.71,0-14.99,18.08-56.95,18.08-56.95l.03-.03-.02-.02.02-.05L131.01,0Z"/><rect class="cls-1" x="174.31" y="119.17" width="38.82" height="38.82" transform="translate(-41.25 177.57) rotate(-45)"/></g></g></svg>